<svg width="312" height="302" viewBox="0 0 312 302" fill="none" xmlns="http://www.w3.org/2000/svg">
<g clip-path="url(#clip0_19_862)">
<path d="M291.233 148.079L241.415 200.65L261.167 113.687L310.985 61.1158L291.233 148.079Z" stroke="black" stroke-width="1.725" stroke-linecap="round" stroke-linejoin="round"/>
<path d="M219.964 150.984L208.209 161.778C212.333 162.65 216.339 164.014 220.139 165.842C221.749 166.527 223.228 167.488 224.509 168.682C226.301 170.736 216.689 167.808 211.967 167.284H211.923C212.878 167.786 213.747 168.435 214.502 169.207C216.052 170.98 204.195 166.966 203.14 167.721C207.685 169.775 214.72 173.664 216.425 176.691C218.435 180.318 208.122 173.105 201.435 172.887C205.674 174.853 210.307 177.608 211.967 180.667C214.24 184.807 206.024 177.217 196.235 176.909H196.191C205.543 182.59 209.913 187.259 196.628 181.498C194.193 180.409 191.594 179.729 188.937 179.488L162.237 203.904L241.071 200.845L252.652 149.804L219.964 150.984Z" stroke="black" stroke-width="1.725" stroke-linecap="round" stroke-linejoin="round"/>
<path d="M110.627 45.8925C110.813 44.8339 110.615 43.7434 110.07 42.8165C109.528 41.8896 108.67 41.1865 107.655 40.8325C108.309 40.2288 108.771 39.4473 108.987 38.5838C109.203 37.7206 109.162 36.8133 108.867 35.9731C108.575 35.1331 108.042 34.3969 107.338 33.855C106.632 33.3132 105.783 32.9891 104.895 32.9228C105.256 32.1526 105.399 31.297 105.302 30.4513C105.208 29.6056 104.879 28.8029 104.355 28.1326C103.83 27.4624 103.131 26.9507 102.333 26.6547C101.535 26.3584 100.67 26.2894 99.8354 26.4552C99.9435 25.6072 99.8101 24.7459 99.4513 23.9696C99.0925 23.1934 98.5243 22.5333 97.809 22.0643C97.0937 21.5953 96.2611 21.3366 95.4078 21.317C94.5522 21.2975 93.7105 21.5183 92.9745 21.9541C92.8181 21.0831 92.4155 20.2754 91.8118 19.6279C91.208 18.9805 90.4307 18.5209 89.5728 18.304C88.7149 18.0872 87.8133 18.1226 86.9749 18.4057C86.1366 18.6888 85.3971 19.2077 84.8463 19.9002C84.43 19.066 83.7791 18.3712 82.9729 17.9006C82.1679 17.43 81.2433 17.2042 80.3118 17.2504C79.3803 17.2969 78.4822 17.6134 77.7278 18.1617C76.9734 18.7098 76.3949 19.4658 76.0626 20.3372C75.5347 19.7806 74.8746 19.3657 74.1444 19.1309C73.4141 18.8963 72.6355 18.8489 71.8823 18.9938C71.129 19.1387 70.4241 19.4706 69.833 19.9596C69.2407 20.4483 68.7819 21.0781 68.4979 21.7908C68.5726 20.6981 68.3345 19.6068 67.8101 18.6451C67.2857 17.6833 66.498 16.8914 65.5389 16.3622C64.5798 15.8332 63.4907 15.5889 62.3971 15.6581C61.3046 15.7276 60.2535 16.1078 59.3691 16.7538C58.885 15.6363 58.0708 14.693 57.0358 14.0504C56.002 13.408 54.7956 13.0968 53.5789 13.1585C52.3622 13.2204 51.1938 13.6521 50.2289 14.3961C49.2641 15.1402 48.5499 16.1609 48.1819 17.3219C47.1814 16.717 46.02 16.433 44.8539 16.5082C43.6866 16.5834 42.5711 17.0142 41.6569 17.7424C40.7426 18.4708 40.0733 19.4619 39.7398 20.5822C39.4063 21.7023 39.4235 22.8981 39.7892 24.008C38.6197 24.1405 37.518 24.6304 36.6371 25.4113C35.755 26.1919 35.1352 27.2253 34.8626 28.3709C34.5889 29.5163 34.6764 30.7181 35.1111 31.8126C35.5458 32.907 36.307 33.8408 37.2914 34.4868C36.3691 35.2334 35.7022 36.2475 35.3813 37.3894C35.0605 38.5314 35.1018 39.7449 35.4997 40.8622C35.8976 41.9798 36.6325 42.946 37.6031 43.628C38.5737 44.3099 39.7329 44.6735 40.9186 44.6689C40.6805 45.8084 40.7955 46.9933 41.2497 48.0651C41.7028 49.1372 42.4733 50.045 43.4566 50.6673C44.4398 51.29 45.591 51.5972 46.7536 51.5482C47.9163 51.4993 49.0364 51.0965 49.9645 50.3936C50.3325 51.3364 50.95 52.1605 51.7516 52.7776C52.5531 53.3945 53.5087 53.7806 54.5138 53.8942C54.3287 54.5468 54.2919 55.2324 54.4046 55.901C54.5173 56.5698 54.7772 57.2051 55.1659 57.7608C55.5546 58.3167 56.0618 58.7792 56.6517 59.115C57.2405 59.4506 57.8971 59.6511 58.5733 59.7017C58.2076 60.4745 58.0662 61.3341 58.1651 62.1832C58.264 63.0321 58.5975 63.8367 59.13 64.5053C59.6624 65.1741 60.3708 65.6804 61.177 65.9667C61.982 66.2531 62.8513 66.3083 63.6862 66.1256C63.5862 66.9753 63.7253 67.8362 64.0899 68.6101C64.4544 69.3843 65.0283 70.0407 65.7471 70.5048C66.4658 70.9692 67.2995 71.2224 68.1551 71.2365C69.0107 71.2503 69.8525 71.024 70.5862 70.583C70.7426 71.455 71.1474 72.263 71.7535 72.9095C72.3584 73.556 73.1381 74.0133 73.9983 74.2258C74.8574 74.4385 75.7612 74.3974 76.5984 74.1078C77.4345 73.818 78.1705 73.292 78.7145 72.5932C79.2653 73.3835 79.9794 74.0459 80.8097 74.5361C81.6389 75.026 82.5635 75.3323 83.5214 75.4337C84.9854 72.7892 85.9767 69.9094 86.4494 66.9237C86.9358 63.8838 86.3677 60.7689 84.8393 58.0963C78.328 55.955 81.2559 48.3075 85.6696 51.2791C87.7672 52.7212 88.563 52.6292 88.7286 51.2354C88.7413 50.8327 88.8621 50.441 89.0794 50.1015C89.2956 49.7621 89.6015 49.4879 89.9615 49.308C90.3502 50.1278 90.9723 50.8141 91.7497 51.281C92.5259 51.7481 93.4253 51.9747 94.3315 51.9328C95.2377 51.8907 96.1116 51.5818 96.8407 51.0448C97.5721 50.508 98.1287 49.7669 98.4392 48.9147C98.8624 49.3619 99.3708 49.7195 99.9343 49.9665C100.498 50.2138 101.105 50.3451 101.719 50.3534C102.335 50.3614 102.945 50.2462 103.515 50.0139C104.086 49.7818 104.603 49.438 105.038 49.0021C106.119 51.5492 106.94 54.1995 107.485 56.9118C108.141 56.5422 108.697 56.0171 109.102 55.3826C109.509 54.748 109.753 54.0235 109.813 53.2728C109.873 52.5218 109.748 51.7677 109.449 51.0765C109.15 50.3851 108.686 49.7779 108.097 49.308C108.755 48.9743 109.325 48.492 109.764 47.8991C110.204 47.3064 110.5 46.6193 110.627 45.8925Z" stroke="black" stroke-width="1.725" stroke-linecap="round" stroke-linejoin="round"/>
<path d="M107.064 72.9873L237.509 51.0499" stroke="black" stroke-width="1.725" stroke-linecap="round" stroke-linejoin="round"/>
<path d="M-107.75 108.972L82.345 77.0712" stroke="black" stroke-width="1.725" stroke-linecap="round" stroke-linejoin="round"/>
<path d="M93.5398 93.6343L132.651 128.769" stroke="black" stroke-width="1.725" stroke-linecap="round" stroke-linejoin="round"/>
<path d="M132.896 132.66C133.421 130.694 133.423 129.291 132.721 128.815C132.068 128.373 130.881 128.764 129.4 129.82C127.181 131.572 125.173 133.579 123.42 135.8" stroke="black" stroke-width="1.725" stroke-linecap="round" stroke-linejoin="round"/>
<path d="M80.4312 93.7213L121.64 130.691" stroke="black" stroke-width="1.725" stroke-linecap="round" stroke-linejoin="round"/>
<path d="M101.556 160.537L74.8992 137.944L91.0429 163.064" stroke="black" stroke-width="1.725" stroke-linecap="round" stroke-linejoin="round"/>
<path d="M197.199 165.508C198.809 165.858 213.552 171.01 216.645 176.52C218.715 180.189 208.255 172.893 201.482 172.675" stroke="black" stroke-width="1.725" stroke-linecap="round" stroke-linejoin="round"/>
<path d="M195.746 170.333C199.854 171.819 209.59 175.931 212.134 180.559C214.434 184.759 206.154 177.063 196.227 176.757" stroke="black" stroke-width="1.725" stroke-linecap="round" stroke-linejoin="round"/>
<path d="M194.393 175.835C204.793 181.909 210.525 187.533 196.403 181.429C189.107 178.275 135.913 176.665 135.913 176.665C131.244 176.182 126.787 174.478 122.987 171.723L101.924 155.728" stroke="black" stroke-width="1.725" stroke-linecap="round" stroke-linejoin="round"/>
<path d="M118.58 131.784L139.993 150.794C139.993 150.794 193.657 160.845 197.764 162.018C201.872 163.191 211.709 165.684 214.589 168.966C216.121 170.712 207.689 167.699 202.571 167.436" stroke="black" stroke-width="1.725" stroke-linecap="round" stroke-linejoin="round"/>
<path d="M121.849 134.606C122.373 132.639 122.376 131.236 121.674 130.76C121.021 130.318 119.834 130.712 118.353 131.765C112.306 136.068 103.32 149.408 101.441 156.718C100.981 158.512 101.064 160.129 101.66 160.52C102.35 160.98 104.325 160.432 105.8 158.772" stroke="black" stroke-width="1.725" stroke-linecap="round" stroke-linejoin="round"/>
<path d="M34.6289 174.829C45.179 175.273 55.5578 172.046 63.9953 165.696" stroke="black" stroke-width="1.725" stroke-linecap="round" stroke-linejoin="round"/>
<path d="M90.7007 163.752L95.3766 155.318" stroke="black" stroke-width="1.725" stroke-linecap="round" stroke-linejoin="round"/>
<path d="M92.7203 89.4345C89.8361 93.6297 84.5484 91.7943 77.2505 84.7586" stroke="black" stroke-width="1.725" stroke-linecap="round" stroke-linejoin="round"/>
<path d="M45.8072 228.076L79.769 190.271L42.3618 251.188" stroke="black" stroke-width="1.725" stroke-linecap="round" stroke-linejoin="round"/>
<path d="M-7.79559 249.791C-5.32884 252.006 -2.45039 253.715 0.676458 254.816C3.80331 255.918 7.1176 256.394 10.4273 256.215C13.7382 256.038 16.9812 255.207 19.9712 253.777C22.9623 252.344 25.6407 250.336 27.8544 247.868L45.6334 228.12L38.6046 275.04L9.58781 307.378C16.8685 320.162 28.0902 330.247 41.5762 336.128L72.2973 301.911C76.8456 296.853 80.0598 290.74 81.6491 284.125C88.3375 256.065 86.0628 206.514 90.3891 163.906C72.9965 160.673 66.5726 156.74 53.3315 146.295C44.7755 152.549 25.6786 157.19 6.48741 204.911L-22.1292 179.172C-35.3312 185.889 -45.5646 197.275 -50.8401 211.116L-7.79559 249.791Z" stroke="black" stroke-width="1.725" stroke-linecap="round" stroke-linejoin="round"/>
<path d="M94.8805 75.8732C93.7236 75.4417 92.5943 74.9394 91.4995 74.369L93.719 79.199" stroke="black" stroke-width="1.725" stroke-linecap="round" stroke-linejoin="round"/>
<path d="M53.5791 145.96C55.4387 140.117 56.6979 134.099 57.3373 127.999C58.4505 118.615 61.1737 109.494 65.3873 101.036C69.5043 92.386 78.9573 84.4096 83.7873 75.2096C85.2351 72.6822 86.154 69.8872 86.4898 66.994C86.9774 63.9541 86.4093 60.839 84.8798 58.1666C78.3685 56.0253 81.3102 48.3594 85.7101 51.3494C87.8146 52.7823 88.638 52.7041 88.7691 51.3057C88.8875 50.5704 89.0347 49.8708 89.2084 49.2081M96.6351 108.334C93.4151 99.0422 90.7425 84.8351 94.8158 75.9272C111.362 81.9969 109.961 60.5448 105.113 49.2081L96.6351 108.334Z" stroke="black" stroke-width="1.725" stroke-linecap="round" stroke-linejoin="round"/>
<path d="M19.3171 296.794C27.2211 309.108 38.4704 318.915 51.7471 325.068" stroke="black" stroke-width="1.725" stroke-linecap="round" stroke-linejoin="round"/>
<path d="M212.013 167.038C216.776 167.519 226.468 170.488 224.686 168.437C223.391 167.231 221.898 166.254 220.272 165.553C214.108 162.54 208.211 161.576 201.656 159.784L150.826 147.461L129.615 129.829" stroke="black" stroke-width="1.725" stroke-linecap="round" stroke-linejoin="round"/>
<path d="M48.7579 173.198L9.55904 230.795L-28.3289 200.773" stroke="black" stroke-width="1.725" stroke-linecap="round" stroke-linejoin="round"/>
<path d="M156.474 41.7028C156.768 43.4745 156.529 45.2936 155.788 46.9301C155.05 48.5663 153.84 49.9465 152.315 50.8959C150.793 51.8454 149.02 52.3215 147.226 52.264C145.429 52.2065 143.693 51.6181 142.232 50.573C140.772 49.5281 139.654 48.0734 139.019 46.393C138.387 44.7128 138.265 42.8823 138.672 41.1329C139.077 39.3838 139.994 37.7942 141.303 36.5656C142.614 35.3369 144.259 34.5241 146.03 34.2301C148.405 33.8373 150.841 34.4038 152.798 35.8049C154.756 37.2061 156.078 39.3274 156.474 41.7028Z" stroke="black" stroke-width="1.725" stroke-linecap="round" stroke-linejoin="round"/>
<path d="M181.323 37.5805C181.617 39.3522 181.378 41.1713 180.638 42.8078C179.899 44.444 178.689 45.8242 177.165 46.7736C175.642 47.7231 173.869 48.1992 172.075 48.1417C170.278 48.0842 168.542 47.4956 167.081 46.4507C165.621 45.4058 164.503 43.9511 163.868 42.2707C163.236 40.5906 163.114 38.76 163.521 37.0106C163.926 35.2615 164.843 33.6719 166.152 32.4433C167.463 31.2146 169.108 30.4018 170.879 30.1078C173.255 29.715 175.688 30.2813 177.648 31.6827C179.605 33.0838 180.927 35.2051 181.323 37.5805Z" stroke="black" stroke-width="1.725" stroke-linecap="round" stroke-linejoin="round"/>
<path d="M206.601 33.3828C206.895 35.1545 206.656 36.9736 205.915 38.61C205.177 40.2463 203.967 41.6265 202.442 42.5759C200.92 43.5254 199.146 44.0012 197.352 43.944C195.556 43.8865 193.82 43.2979 192.359 42.253C190.899 41.2079 189.781 39.7534 189.146 38.073C188.514 36.3929 188.392 34.5623 188.799 32.8129C189.204 31.0635 190.121 29.4742 191.43 28.2456C192.741 27.0169 194.385 26.2041 196.156 25.9101C198.532 25.5166 200.968 26.0829 202.925 27.484C204.885 28.8854 206.207 31.0072 206.601 33.3828Z" stroke="black" stroke-width="1.725" stroke-linecap="round" stroke-linejoin="round"/>
<path d="M161.406 287.589L127.583 277.101L156.031 257.348" stroke="black" stroke-width="1.725" stroke-linecap="round" stroke-linejoin="round"/>
<path d="M189.438 283.115L217.668 262.226L184.063 252.831" stroke="black" stroke-width="1.725" stroke-linecap="round" stroke-linejoin="round"/>
<path d="M178.749 240.379L166.382 300.598" stroke="black" stroke-width="1.725" stroke-linecap="round" stroke-linejoin="round"/>
<path d="M258.606 182.402L272.107 265.624C272.921 270.39 272.788 275.27 271.716 279.985C270.642 284.7 268.65 289.158 265.856 293.102C263.059 297.047 259.512 300.402 255.418 302.976C251.324 305.55 246.766 307.291 241.998 308.1L21.9131 345.112" stroke="black" stroke-width="1.725" stroke-linecap="round" stroke-linejoin="round"/>
<path d="M35.0918 37.1942L-79.3631 56.4231C-84.13 57.2334 -88.6907 58.975 -92.7843 61.5485C-96.8778 64.1219 -100.424 67.4769 -103.22 71.4219C-106.016 75.3666 -108.008 79.8238 -109.081 84.5386C-110.153 89.2533 -110.287 94.1335 -109.472 98.8995L-98.2612 168.024" stroke="black" stroke-width="1.725" stroke-linecap="round" stroke-linejoin="round"/>
<path d="M100.319 26.3332L193.357 10.7021C198.122 9.88794 203.003 10.0211 207.718 11.0938C212.433 12.1665 216.89 14.1581 220.835 16.9542C224.779 19.7506 228.135 23.2967 230.709 27.3902C233.282 31.4838 235.023 36.0445 235.833 40.8114L253.085 147.169" stroke="black" stroke-width="1.725" stroke-linecap="round" stroke-linejoin="round"/>
</g>
<defs>
<clipPath id="clip0_19_862">
<rect x="-128" y="0.223999" width="440" height="408" fill="white"/>
</clipPath>
</defs>
</svg>
