<svg width="352" height="348" viewBox="0 0 352 348" fill="none" xmlns="http://www.w3.org/2000/svg">
<g clip-path="url(#clip0_19_951)">
<path d="M384.018 168.013C390.001 181.452 393.258 195.946 393.602 210.652C393.947 225.358 391.372 239.989 386.024 253.693C380.677 267.396 372.663 279.906 362.451 290.492C352.237 301.078 340.023 309.535 326.52 315.37" stroke="black" stroke-width="1.575" stroke-linecap="round" stroke-linejoin="round"/>
<path d="M299.437 103.801C320.137 106.953 339.518 115.904 355.339 129.619" stroke="black" stroke-width="1.575" stroke-linecap="round" stroke-linejoin="round"/>
<path d="M233.217 114.206C242.873 109.377 253.182 105.989 263.821 104.153" stroke="black" stroke-width="1.575" stroke-linecap="round" stroke-linejoin="round"/>
<path d="M167.221 301.397L211.592 399.316" stroke="black" stroke-width="1.575" stroke-linecap="round" stroke-linejoin="round"/>
<path d="M143.378 249.163L80.7725 111.103C77.381 103.753 82.169 97.2576 90.1889 98.2929L198.881 112.497C205.2 113.325 211.206 115.733 216.344 119.5C221.485 123.266 225.591 128.269 228.281 134.045L351.257 399.511" stroke="black" stroke-width="1.575" stroke-linecap="round" stroke-linejoin="round"/>
<path d="M165.658 236.44C151.815 245.781 136.755 253.177 120.899 258.419C113.123 259.536 105.29 260.215 97.4377 260.454" stroke="black" stroke-width="1.575" stroke-linecap="round" stroke-linejoin="round"/>
<path d="M105.556 277.581L89.9071 243.904C88.5986 241.106 86.2332 238.941 83.3306 237.887C80.4279 236.833 77.2252 236.974 74.4259 238.278L28.1881 259.864C25.3901 261.172 23.2258 263.537 22.1706 266.439C21.1153 269.343 21.2554 272.546 22.5601 275.345L50.173 334.72C51.4816 337.517 53.8468 339.682 56.7496 340.737C59.6522 341.791 62.8549 341.65 65.6542 340.346L111.422 318.998" stroke="black" stroke-width="1.575" stroke-linecap="round" stroke-linejoin="round"/>
<path d="M51.2007 249.289C51.2007 249.289 20.1081 246.429 7.34845 237.359C-5.41114 228.289 5.18546 206.279 21.5928 217.966C38.2626 229.831 51.2007 249.289 51.2007 249.289Z" stroke="black" stroke-width="1.575" stroke-linecap="round" stroke-linejoin="round"/>
<path d="M51.0797 249.316C51.0797 249.316 70.4123 224.82 72.6257 209.294C74.8391 193.769 51.5858 186.356 48.7697 206.256C45.8801 226.537 51.0797 249.316 51.0797 249.316Z" stroke="black" stroke-width="1.575" stroke-linecap="round" stroke-linejoin="round"/>
<path d="M164.817 234.207L166.796 227.907C166.796 227.907 148.167 240.555 151.594 213.341C154.053 193.811 164.276 203.261 166.642 210.445C167.197 212.125 167.873 212.656 169.582 210.109C172.653 205.558 178.314 211.661 171.697 217.93C170.427 219.135 170.912 228.091 178.522 234.61C183.352 238.751 198.312 241.632 219.978 235.45" stroke="black" stroke-width="1.575" stroke-linecap="round" stroke-linejoin="round"/>
<path d="M163.654 229.559C164.9 234.935 166.678 240.175 168.96 245.2" stroke="black" stroke-width="1.575" stroke-linecap="round" stroke-linejoin="round"/>
<path d="M175.548 231.228C170.718 246.669 156.514 263.826 145.382 277.793C129.149 279.185 112.813 278.809 96.6616 276.674" stroke="black" stroke-width="1.575" stroke-linecap="round" stroke-linejoin="round"/>
<path d="M235.767 266.469C228.846 271.963 220.458 275.294 211.653 276.041C202.848 276.789 194.018 274.92 186.27 270.669C180.665 281.178 174.435 291.34 167.614 301.103C165.359 304.5 162.008 307.02 158.118 308.243C137.068 314.706 115.429 319.064 93.5173 321.25" stroke="black" stroke-width="1.575" stroke-linecap="round" stroke-linejoin="round"/>
<path d="M216.061 275.591C223.564 287.6 231.535 294.845 235.973 292.787C249.7 286.418 217.757 217.322 203.811 223.756C200.699 225.195 199.981 230.858 201.291 238.721" stroke="black" stroke-width="1.575" stroke-linecap="round" stroke-linejoin="round"/>
<path d="M341.381 133.383C341.78 145.672 343.296 190.083 343.296 194.671C336.274 195.748 280.85 209.075 277.698 209.634" stroke="black" stroke-width="1.575" stroke-linecap="round" stroke-linejoin="round"/>
<path d="M300.202 258.129C384.355 228.519 382.512 229.917 384.202 206.815C385.275 192.092 383.524 149.876 382.486 133.277" stroke="black" stroke-width="1.575" stroke-linecap="round" stroke-linejoin="round"/>
<path d="M257.009 112.208C263.073 122.902 287.249 162.883 289.409 166.913C287.099 168.629 276.522 180.082 267.779 188.302" stroke="black" stroke-width="1.575" stroke-linecap="round" stroke-linejoin="round"/>
<path d="M320.515 199.733C336.994 174.234 333.795 167.895 328.705 157.277C322.111 143.556 300.374 104.687 292.314 91.5995" stroke="black" stroke-width="1.575" stroke-linecap="round" stroke-linejoin="round"/>
<path d="M266.099 22.2547C258.996 34.9828 251.575 64.1917 250.979 77.4406C253.093 80.83 255.128 84.1816 257.083 87.4954C262.739 82.5092 269.133 78.4301 276.038 75.4036C276.071 71.716 277.151 54.7186 266.099 22.2547Z" stroke="black" stroke-width="1.575" stroke-linecap="round" stroke-linejoin="round"/>
<path d="M80.4983 102.672C82.6621 97.6116 86.4146 93.3934 91.1883 90.6545C95.9621 87.9157 101.497 86.8052 106.958 87.4911L213.535 101.217C218.153 101.809 222.544 103.562 226.299 106.312C230.056 109.061 233.053 112.718 235.012 116.942L365.928 399.526" stroke="black" stroke-width="1.575" stroke-linecap="round" stroke-linejoin="round"/>
<path d="M102.834 115.532C104.304 118.724 103.791 122.116 101.676 123.113C99.5618 124.111 96.6092 122.315 95.1329 119.123C93.6566 115.931 94.1669 112.523 96.29 111.542C98.4131 110.562 101.364 112.34 102.834 115.532Z" stroke="black" stroke-width="1.575" stroke-linecap="round" stroke-linejoin="round"/>
<path d="M36.5125 132.459L47.1658 155.521" stroke="black" stroke-width="1.575" stroke-linecap="round" stroke-linejoin="round"/>
<path d="M53.3502 138.643L30.3279 149.336" stroke="black" stroke-width="1.575" stroke-linecap="round" stroke-linejoin="round"/>
<path d="M341.795 149.431C355.27 153.855 369.063 153.421 383.255 149.431" stroke="black" stroke-width="1.575" stroke-linecap="round" stroke-linejoin="round"/>
<path d="M265.16 126.229C279.006 123.588 291.471 116.136 300.35 105.189" stroke="black" stroke-width="1.575" stroke-linecap="round" stroke-linejoin="round"/>
<path d="M188.796 19.7143L161.223 31.2874L185.723 14.1283L179.379 2.59722C179.171 2.22266 178.876 1.90342 178.519 1.66623C178.162 1.42901 177.754 1.28077 177.329 1.23388C176.902 1.18699 176.472 1.24285 176.072 1.39673C175.672 1.55062 175.315 1.79811 175.03 2.11842L141.871 39.028C141.506 39.4426 141.277 39.9598 141.217 40.5092C141.156 41.0585 141.266 41.6131 141.532 42.0974C141.799 42.5819 142.207 42.9722 142.704 43.2154C143.2 43.4588 143.759 43.543 144.305 43.4569L193.264 35.1976C193.686 35.1289 194.083 34.9607 194.426 34.7066C194.768 34.4525 195.044 34.1201 195.232 33.7373C195.42 33.3544 195.513 32.9321 195.504 32.506C195.495 32.0797 195.383 31.6618 195.18 31.2874L188.796 19.7143Z" stroke="black" stroke-width="1.575" stroke-linecap="round" stroke-linejoin="round"/>
<path d="M80.2538 274.167C72.597 272.374 65.2619 269.415 58.5062 265.389C54.4364 263.155 52.9097 265.402 56.8703 268.9C60.5379 272.01 64.5233 274.728 68.7605 277.002" stroke="black" stroke-width="1.575" stroke-linecap="round" stroke-linejoin="round"/>
<path d="M65.1475 274.898C60.8307 273.518 56.6062 271.866 52.4992 269.95C48.3958 267.785 47.1967 270.58 51.382 273.781C56.4606 277.242 61.7961 280.312 67.342 282.96" stroke="black" stroke-width="1.575" stroke-linecap="round" stroke-linejoin="round"/>
<path d="M61.2827 279.921C58.1518 279.194 55.0618 278.302 52.0259 277.248C47.7356 275.639 46.8431 278.634 51.3476 281.198C56.1125 283.674 61.0777 285.742 66.1904 287.382" stroke="black" stroke-width="1.575" stroke-linecap="round" stroke-linejoin="round"/>
<path d="M101.057 303.579C99.9394 303.938 80.3464 298.554 68.8153 294.083C64.1953 292.287 59.3653 290.483 54.8503 288.257C50.3059 286.015 50.5747 283.772 54.97 284.786C56.5639 285.154 58.4413 285.385 61.5136 285.784" stroke="black" stroke-width="1.575" stroke-linecap="round" stroke-linejoin="round"/>
<path d="M87.6605 300.273C87.1019 311.805 89.3783 321.053 92.9294 321.341C101.815 322.061 105.319 278.028 96.4805 276.493C90.0428 275.057 84.172 271.751 79.6028 266.995C70.8521 257.429 68.1095 259.494 76.4108 272.86" stroke="black" stroke-width="1.575" stroke-linecap="round" stroke-linejoin="round"/>
<path d="M185.29 341.385C181.535 343.08 178.356 345.833 176.142 349.306C173.93 352.78 172.779 356.826 172.832 360.944C172.884 365.063 174.137 369.078 176.438 372.494C178.739 375.911 181.987 378.582 185.783 380.18C189.58 381.779 193.761 382.232 197.813 381.489C201.865 380.745 205.612 378.834 208.594 375.993C211.573 373.15 213.661 369.5 214.597 365.487C215.536 361.476 215.28 357.278 213.867 353.41C212.863 350.68 211.309 348.185 209.301 346.083C207.294 343.979 204.874 342.311 202.193 341.183C199.512 340.056 196.629 339.491 193.72 339.526C190.813 339.56 187.943 340.194 185.29 341.385Z" stroke="black" stroke-width="1.575" stroke-linecap="round" stroke-linejoin="round"/>
<path d="M285.864 92.1454C289.415 90.9883 291.92 90.793 292.527 91.8262C294.207 94.6906 282.013 102.746 279.152 104.5C275.372 106.81 259.055 115.873 257.014 112.335C256.111 110.77 259.847 106.829 265.952 102.559" stroke="black" stroke-width="1.575" stroke-linecap="round" stroke-linejoin="round"/>
<path d="M276.003 75.2991C269.102 78.2927 262.718 82.3604 257.088 87.351C261.517 94.8522 266.145 102.681 269.698 109.611C276.628 106.436 283.096 102.338 288.93 97.431L276.003 75.2991Z" stroke="black" stroke-width="1.575" stroke-linecap="round" stroke-linejoin="round"/>
<path d="M335.301 91.9026C334.65 92.4037 333.865 92.7004 333.046 92.7554C332.227 92.8104 331.408 92.621 330.696 92.2113C329.984 91.8016 329.409 91.1899 329.045 90.4536C328.68 89.7173 328.543 88.8895 328.648 88.0749C328.755 87.2601 329.1 86.4953 329.64 85.8769C330.181 85.2584 330.893 84.814 331.687 84.6003C332.479 84.3865 333.319 84.4127 334.098 84.6755C334.875 84.9384 335.557 85.4262 336.059 86.0772C336.725 86.9523 337.021 88.055 336.878 89.1459C336.735 90.2367 336.168 91.2275 335.301 91.9026Z" stroke="black" stroke-width="1.575" stroke-linecap="round" stroke-linejoin="round"/>
<path d="M208.735 192.937C208.55 194.228 207.947 195.424 207.017 196.34C206.087 197.255 204.881 197.839 203.588 198.004C204.86 198.614 205.874 199.657 206.448 200.946C207.021 202.234 207.118 203.687 206.721 205.039C206.322 206.394 205.454 207.561 204.274 208.334C203.092 209.105 201.677 209.432 200.276 209.256C200.767 209.882 201.126 210.6 201.332 211.369C201.538 212.135 201.586 212.937 201.473 213.725C201.366 214.498 201.107 215.241 200.713 215.915C200.318 216.587 199.794 217.177 199.171 217.648C198.549 218.118 197.84 218.46 197.084 218.658C196.329 218.853 195.542 218.899 194.77 218.792C194.204 218.712 193.652 218.553 193.134 218.313C193.346 219.107 193.4 219.932 193.293 220.747C193.146 221.841 192.696 222.872 191.994 223.725C191.292 224.576 190.366 225.214 189.319 225.567C188.273 225.92 187.15 225.972 186.076 225.72C185 225.468 184.018 224.92 183.239 224.139C183.245 224.313 183.231 224.487 183.199 224.657C182.975 226.216 182.145 227.623 180.89 228.57C179.635 229.519 178.055 229.935 176.495 229.725C175.336 229.571 174.252 229.072 173.383 228.288C170.71 223.261 171.021 218.628 171.703 217.954C178.213 211.579 172.657 205.583 169.586 210.134C168.314 212.024 167.335 212.681 166.67 210.6C164.37 203.412 154.317 193.836 151.592 213.406C150.896 217.221 150.924 221.134 151.671 224.939C150.888 224.296 150.282 223.463 149.913 222.52C149.542 221.577 149.42 220.554 149.557 219.55C149.589 219.307 149.642 219.067 149.716 218.832C148.644 219.372 147.431 219.567 146.245 219.391C144.691 219.16 143.289 218.328 142.342 217.074C141.394 215.821 140.976 214.246 141.178 212.687C141.31 211.789 141.636 210.928 142.135 210.167C141.646 210.207 141.155 210.207 140.665 210.167C139.471 210.006 138.355 209.483 137.466 208.67C136.577 207.857 135.956 206.791 135.687 205.617C135.418 204.443 135.514 203.214 135.961 202.095C136.409 200.976 137.187 200.02 138.191 199.355C136.809 199.083 135.566 198.329 134.688 197.226C133.809 196.125 133.35 194.746 133.393 193.337C133.436 191.928 133.979 190.58 134.923 189.534C135.868 188.487 137.153 187.811 138.551 187.624C137.282 187.016 136.271 185.976 135.697 184.692C135.122 183.408 135.024 181.961 135.416 180.611C135.809 179.26 136.668 178.092 137.842 177.316C139.015 176.54 140.426 176.205 141.822 176.372C141.083 175.444 140.639 174.315 140.548 173.132C140.456 171.948 140.722 170.765 141.309 169.734C141.897 168.703 142.78 167.872 143.845 167.348C144.909 166.824 146.106 166.631 147.282 166.794C147.837 166.869 148.375 167.03 148.878 167.273C148.641 166.471 148.574 165.629 148.679 164.799C148.782 164.024 149.038 163.278 149.432 162.602C149.825 161.927 150.348 161.337 150.972 160.866C151.596 160.394 152.307 160.051 153.064 159.857C153.821 159.662 154.608 159.619 155.382 159.732C156.63 159.914 157.79 160.488 158.694 161.368C158.763 160.005 159.3 158.707 160.213 157.694C161.127 156.679 162.361 156.012 163.71 155.801C165.058 155.591 166.437 155.85 167.617 156.537C168.796 157.223 169.703 158.295 170.185 159.572C172.308 153.012 182.247 154.809 182.155 161.487C182.972 160.475 184.098 159.759 185.362 159.447C186.625 159.136 187.954 159.247 189.149 159.762C190.343 160.278 191.335 161.17 191.975 162.303C192.614 163.436 192.865 164.748 192.689 166.036C192.658 166.293 192.606 166.546 192.529 166.794C193.589 166.264 194.786 166.068 195.96 166.235C197.521 166.458 198.929 167.289 199.88 168.546C200.83 169.803 201.244 171.386 201.034 172.947C200.918 173.857 200.576 174.725 200.036 175.467C200.515 175.424 200.996 175.437 201.473 175.505C203.027 175.737 204.428 176.568 205.377 177.822C206.324 179.076 206.742 180.652 206.54 182.21C206.425 183.05 206.129 183.855 205.675 184.572C205.221 185.288 204.617 185.898 203.907 186.36C205.408 186.614 206.752 187.442 207.653 188.671C208.554 189.898 208.943 191.428 208.735 192.937Z" stroke="black" stroke-width="1.575" stroke-linecap="round" stroke-linejoin="round"/>
<path d="M46.0693 251.599L55.1665 271.15" stroke="black" stroke-width="1.575" stroke-linecap="round" stroke-linejoin="round"/>
<path d="M65.1111 292.519L83.4672 331.943" stroke="black" stroke-width="1.575" stroke-linecap="round" stroke-linejoin="round"/>
<path d="M56.6558 246.667L67.5086 269.969" stroke="black" stroke-width="1.575" stroke-linecap="round" stroke-linejoin="round"/>
<path d="M80.5669 298.075L89.2651 316.749" stroke="black" stroke-width="1.575" stroke-linecap="round" stroke-linejoin="round"/>
<path d="M90.6086 319.545L94.04 326.969" stroke="black" stroke-width="1.575" stroke-linecap="round" stroke-linejoin="round"/>
<path d="M355.161 129.372C351.652 129.613 339.831 130.902 341.368 134.038C342.974 137.299 358.588 137.877 362.544 137.866C378.336 137.826 389.72 133.483 377.108 130.529" stroke="black" stroke-width="1.575" stroke-linecap="round" stroke-linejoin="round"/>
<path d="M186.209 270.725C187.787 267.598 189.201 264.392 190.447 261.118V272.808" stroke="black" stroke-width="1.575" stroke-linecap="round" stroke-linejoin="round"/>
</g>
<defs>
<clipPath id="clip0_19_951">
<rect y="0.223999" width="400" height="400" fill="white"/>
</clipPath>
</defs>
</svg>
